<?xml version="1.0" encoding="UTF-8" standalone="no"?>
<svg
   xmlns:dc="http://purl.org/dc/elements/1.1/"
   xmlns:cc="http://creativecommons.org/ns#"
   xmlns:rdf="http://www.w3.org/1999/02/22-rdf-syntax-ns#"
   xmlns:svg="http://www.w3.org/2000/svg"
   xmlns="http://www.w3.org/2000/svg"
   xmlns:sodipodi="http://sodipodi.sourceforge.net/DTD/sodipodi-0.dtd"
   xmlns:inkscape="http://www.inkscape.org/namespaces/inkscape"
   sodipodi:docname="camel.svg"
   inkscape:version="1.0 (4035a4fb49, 2020-05-01)"
   id="svg8"
   version="1.1"
   viewBox="0 0 200 200"
   height="200mm"
   width="200mm">
  <defs
     id="defs2">
    <clipPath
       id="clip0">
      <rect
         x="536"
         y="131"
         width="1096"
         height="1097"
         id="rect833" />
    </clipPath>
    <linearGradient
       x1="1084"
       y1="131"
       x2="1084"
       y2="1228"
       gradientUnits="userSpaceOnUse"
       spreadMethod="reflect"
       id="fill1">
      <stop
         offset="0"
         stop-color="#688DCF"
         id="stop836" />
      <stop
         offset="0.24"
         stop-color="#4472C4"
         id="stop838" />
      <stop
         offset="0.83"
         stop-color="#3D69B9"
         id="stop840" />
      <stop
         offset="1"
         stop-color="#325696"
         id="stop842" />
    </linearGradient>
  </defs>
  <sodipodi:namedview
     inkscape:window-maximized="1"
     inkscape:window-y="-6"
     inkscape:window-x="-6"
     inkscape:window-height="850"
     inkscape:window-width="1368"
     showgrid="false"
     inkscape:document-rotation="0"
     inkscape:current-layer="layer1"
     inkscape:document-units="mm"
     inkscape:cy="304.7619"
     inkscape:cx="265.71429"
     inkscape:zoom="0.35"
     inkscape:pageshadow="2"
     inkscape:pageopacity="0.0"
     borderopacity="1.0"
     bordercolor="#666666"
     pagecolor="#ffffff"
     id="base" />
  <metadata
     id="metadata5">
    <rdf:RDF>
      <cc:Work
         rdf:about="">
        <dc:format>image/svg+xml</dc:format>
        <dc:type
           rdf:resource="http://purl.org/dc/dcmitype/StillImage" />
        <dc:title></dc:title>
      </cc:Work>
    </rdf:RDF>
  </metadata>
  <g
     id="layer1"
     inkscape:groupmode="layer"
     inkscape:label="Ebene 1">
    <g
       clip-path="url(#clip0)"
       transform="matrix(0.18189027,0,0,0.18189027,-97.341997,-23.581943)"
       id="g877">
      <path
         style="fill:url(#fill1)"
         d="M 536,313.67 C 536,212.784 617.784,131 718.67,131 h 730.66 c 100.89,0 182.67,81.784 182.67,182.67 v 731.66 c 0,100.89 -81.78,182.67 -182.67,182.67 H 718.67 C 617.784,1228 536,1146.22 536,1045.33 Z"
         fill="url(#fill1)"
         fill-rule="evenodd"
         id="path847" />
      <path
         d="m 1289.08,549 7.24,108.774 33.77,128.112 47.05,118.442 49.46,71.308 19.3,4.834 31.36,-18.129 61.52,-80.976 59.11,-95.479 34.11,-18.322 v 277.526 c 0,101.02 -81.73,182.91 -182.55,182.91 h -293.56 l -9.15,-10.64 -68.76,-149.87 -34.98,-166.787 45.84,-206.671 z"
         fill="#a26e59"
         fill-rule="evenodd"
         id="path849" />
      <path
         d="m 773.289,446.745 c -47.047,-87.518 -55.345,-174.508 -18.533,-194.297 36.812,-19.788 104.792,35.118 151.839,122.636 47.047,87.519 55.344,174.509 18.533,194.297 C 888.316,589.17 820.335,534.264 773.289,446.745 Z"
         fill="#a37347"
         fill-rule="evenodd"
         id="path851" />
      <path
         d="m 1266.72,383.021 c 46.98,-87.557 117.97,-140.877 158.57,-119.096 40.59,21.782 35.42,110.418 -11.55,197.974 -46.98,87.556 -117.97,140.877 -158.57,119.095 -40.6,-21.782 -35.43,-110.417 11.55,-197.973 z"
         fill="#a37347"
         fill-rule="evenodd"
         id="path853" />
      <path
         d="m 1084,273 c 190.54,0 345,80.499 345,179.799 0,43.444 -29.56,83.289 -78.78,114.369 l -5.11,2.93 -7.2,17.683 c -20.02,54.137 -36.61,114.818 -49.03,180.388 L 1283.66,800 H 878.108 l -2.745,-16.744 C 862.937,717.685 846.346,657.005 826.33,602.868 l -16.909,-41.527 -11.5,-8.015 C 760.721,524.63 739,490.036 739,452.799 739,353.499 893.462,273 1084,273 Z"
         fill="#9b7063"
         fill-rule="evenodd"
         id="path855" />
      <path
         d="m 858,403 c 0,-99.411 102.079,-180 228,-180 125.92,0 228,80.589 228,180 0,99.411 -102.08,180 -228,180 -125.921,0 -228,-80.589 -228,-180 z"
         fill="#9b7063"
         fill-rule="evenodd"
         id="path857" />
      <path
         d="m 975,432.5 c 0,-55.505 49.7,-100.5 111,-100.5 61.3,0 111,44.995 111,100.5 0,55.505 -49.7,100.5 -111,100.5 -61.3,0 -111,-44.995 -111,-100.5 z"
         fill="#dbd0bf"
         fill-rule="evenodd"
         id="path859" />
      <path
         d="M 878,583.5 C 878,480.499 966.424,397 1075.5,397 1184.58,397 1273,480.499 1273,583.5 1273,686.501 1184.58,770 1075.5,770 966.424,770 878,686.501 878,583.5 Z"
         fill="#896357"
         fill-rule="evenodd"
         id="path861" />
      <path
         d="m 900,930 c 0,-113.771 81.932,-206 183,-206 101.07,0 183,92.229 183,206 0,113.77 -81.93,206 -183,206 -101.068,0 -183,-92.23 -183,-206 z"
         fill="#68473a"
         fill-rule="evenodd"
         id="path863" />
      <path
         d="m 1030,978.5 c 0,-37.279 27.53,-67.5 61.5,-67.5 33.97,0 61.5,30.221 61.5,67.5 0,37.28 -27.53,67.5 -61.5,67.5 -33.97,0 -61.5,-30.22 -61.5,-67.5 z"
         fill="#10091b"
         fill-rule="evenodd"
         id="path865" />
      <path
         d="m 1182.27,629.769 c 8.11,-0.514 16.21,0.157 24.2,2.112 63.91,15.642 96.33,107.564 72.41,205.314 -23.92,97.75 -95.12,164.315 -159.04,148.671 -15.98,-3.911 -29.99,-12.589 -41.64,-24.933 l -7.88,-10.626 -12.33,16.637 c -11.66,12.344 -25.67,21.022 -41.64,24.933 -63.918,15.643 -135.123,-50.921 -159.045,-148.671 -23.922,-97.75 8.498,-189.672 72.412,-205.314 47.936,-11.731 99.973,22.777 133.083,82.003 l 3.88,8.224 6.7,-14.235 c 27.6,-49.354 68.33,-81.544 108.89,-84.115 z"
         fill="#a57252"
         fill-rule="evenodd"
         id="path867" />
      <path
         d="m 1185.51,558.919 c 31.55,-21.495 62.58,-30.917 69.3,-21.045 6.73,9.873 -13.4,35.302 -44.95,56.797 -31.55,21.496 -62.57,30.918 -69.3,21.045 -6.73,-9.873 13.4,-35.302 44.95,-56.797 z"
         fill="#10091b"
         fill-rule="evenodd"
         id="path869" />
      <path
         d="m 944.712,590.91 c -28.128,-25.813 -44.381,-53.873 -36.304,-62.675 8.078,-8.802 37.428,4.989 65.555,30.802 28.127,25.813 44.377,53.874 36.307,62.675 -8.08,8.802 -37.431,-4.989 -65.558,-30.802 z"
         fill="#10091b"
         fill-rule="evenodd"
         id="path871" />
      <path
         d="m 1329.89,518.161 c -9.25,-11.362 0.46,-34.593 21.7,-51.887 21.23,-17.295 45.95,-22.105 55.2,-10.743 9.25,11.361 -0.46,34.592 -21.69,51.887 -21.24,17.295 -45.95,22.105 -55.21,10.743 z"
         fill="#10091b"
         fill-rule="evenodd"
         id="path873" />
      <path
         d="m 748.443,464.422 c 5.791,-13.461 30.879,-15.6 56.036,-4.778 25.158,10.822 40.858,30.507 35.068,43.968 -5.791,13.46 -30.879,15.599 -56.037,4.777 -25.157,-10.822 -40.857,-30.507 -35.067,-43.967 z"
         fill="#10091b"
         fill-rule="evenodd"
         id="path875" />
    </g>
  </g>
</svg>
